<svg xmlns="http://www.w3.org/2000/svg" width="40" height="40" viewBox="0 0 40 40">
    <g fill="none" fill-rule="evenodd">
        <circle cx="19.897" cy="19.897" r="19.897" fill="#026EFF" transform="translate(.103 .103)"/>
        <path fill="#C2E5FA" d="M19.638 13.098c0 .91.697 1.655 1.548 1.655h5.14c.85 0 1.548-.745 1.548-1.655v-1.934c0-.91-.697-1.655-1.548-1.655h-5.14c-.851 0-1.548.745-1.548 1.655v1.934z"/>
        <path fill="#8AC4FF" d="M19.638 18.524c0 .91.697 1.655 1.548 1.655h5.14c.85 0 1.548-.744 1.548-1.655V16.59c0-.91-.697-1.655-1.548-1.655h-5.14c-.851 0-1.548.745-1.548 1.655v1.934z"/>
        <path fill="#53A8FF" d="M19.638 23.589c0 .91.697 1.655 1.548 1.655h5.14c.85 0 1.548-.745 1.548-1.655v-1.934c0-.91-.697-1.655-1.548-1.655h-5.14c-.851 0-1.548.745-1.548 1.655v1.934z"/>
        <path fill="#2992FD" d="M19.638 29.015c0 .91.697 1.655 1.548 1.655h5.14c.85 0 1.548-.745 1.548-1.655v-1.934c0-.91-.697-1.655-1.548-1.655h-5.14c-.851 0-1.548.745-1.548 1.655v1.934z"/>
        <path fill="#FFF" d="M25.947 10.912c0-.938-.719-1.706-1.596-1.706H11.467c-.878 0-1.596.768-1.596 1.706v18.214c0 .938.718 1.706 1.596 1.706H24.35c.877 0 1.596-.768 1.596-1.706V10.912z"/>
        <path fill="#7D868C" d="M11.972 24.186h11.874v1.05H11.972z" opacity=".208"/>
        <path fill="#C3C6C8" d="M13.662 22.061h8.493c-.248-1.248-.965-2.31-1.945-2.967a3.764 3.764 0 0 0 1.119-2.705c0-2.02-1.532-3.656-3.42-3.656-1.889 0-3.42 1.637-3.42 3.656 0 1.072.431 2.036 1.118 2.705-.98.656-1.696 1.72-1.945 2.967z" opacity=".296"/>
        <path fill="#7D868C" d="M13.467 26.211h8.884v1.05h-8.884z" opacity=".208"/>
    </g>
</svg>
