<svg xmlns="http://www.w3.org/2000/svg" width="38" height="40" viewBox="0 0 38 40">
    <g fill="none" fill-rule="evenodd">
        <g fill="#CBD4D8">
            <path d="M31.416 28.667c-.392 0-.653-.267-.653-.667v-2c0-.4.261-.667.653-.667.393 0 .654.267.654.667v2c0 .4-.261.667-.654.667"/>
            <path d="M31.416 32.667c-1.438 0-2.615-1.2-2.615-2.667 0-.4.262-.667.654-.667s.654.267.654.667c0 .733.588 1.333 1.307 1.333.72 0 1.308-.6 1.308-1.333s-.588-1.333-1.308-1.333c-.392 0-.653-.267-.653-.667s.261-.667.653-.667c1.439 0 2.615 1.2 2.615 2.667 0 1.467-1.176 2.667-2.615 2.667"/>
        </g>
        <path fill="#2C3C42" d="M32.724 26h-2.615v-.8c0-1.2.458-2.333 1.307-3.2.85.867 1.308 2 1.308 3.2v.8z"/>
        <path fill="#51656B" d="M31.416 22.667c-.392 0-.653-.267-.653-.667v-8c0-.4.261-.667.653-.667.393 0 .654.267.654.667v8c0 .4-.261.667-.654.667"/>
        <g fill="#F4BA48">
            <path d="M9.188 38.667h5.23v-31.2l-1.96-6.134h-1.243L9.19 7.467v31.2zM15.072 40H8.535c-.393 0-.654-.267-.654-.667v-32c0-.066 0-.133.065-.2L10.104.467A.63.63 0 0 1 10.692 0h2.158c.261 0 .523.2.588.467l2.157 6.666c0 .067.066.134.066.2v32c.065.4-.196.667-.589.667z"/>
            <path d="M6.573 13.333h1.308V8H6.573v5.333zm1.962 1.334H5.92c-.393 0-.654-.267-.654-.667V7.333c0-.4.261-.666.654-.666h2.615c.392 0 .653.266.653.666V14c0 .4-.261.667-.653.667z"/>
        </g>
        <path fill="#51656B" d="M3.305 8.667v4H2.65c-1.438 0-2.615-1.2-2.615-2.667V8.667h3.269z"/>
        <g fill="#F4BA48">
            <path d="M8.535 40a.588.588 0 0 1-.458-.2c-.261-.267-.196-.667.065-.933l5.95-5.467-5.95-4.867c-.196-.133-.261-.333-.261-.533s.065-.4.261-.533l5.884-4.8-5.884-4.8c-.196-.134-.261-.334-.261-.534s.065-.4.261-.533l6.538-5.333c.262-.2.72-.2.915.133.197.267.197.733-.13.933l-5.884 4.8 5.818 4.8c.131.134.262.334.262.534s-.066.4-.262.533L9.581 28l5.818 4.8c.131.133.262.333.262.533s-.066.4-.196.534l-6.473 6c-.13.066-.327.133-.457.133"/>
            <path d="M15.072 40a.699.699 0 0 1-.457-.2l-6.538-6a.61.61 0 0 1-.196-.467c0-.2.065-.4.261-.533l5.884-4.8-5.884-4.8c-.196-.133-.261-.333-.261-.533s.065-.4.261-.534l5.884-4.8-5.884-4.8c-.261-.2-.326-.666-.13-.933s.653-.333.915-.133l6.472 5.333c.131.133.262.333.262.533s-.066.4-.262.534l-5.818 4.8 5.818 4.8c.131.133.262.333.262.533s-.066.4-.262.533l-5.818 4.8L15.53 38.8a.725.725 0 0 1 .065.933.59.59 0 0 1-.523.267"/>
            <path d="M8.535 12.667a.59.59 0 0 1-.523-.267c-.196-.333-.131-.733.13-.933L14.68 6.8c.327-.2.72-.133.915.133.197.334.131.734-.13.934l-6.538 4.666c-.13.067-.262.134-.392.134"/>
            <path d="M15.072 12.667c-.13 0-.261-.067-.392-.134L8.142 7.867c-.326-.2-.392-.6-.13-.934.196-.333.588-.4.915-.133l6.538 4.667c.327.2.392.6.13.933a.59.59 0 0 1-.523.267"/>
            <path d="M15.726 13.333h20.528L33.64 8H15.726v5.333zM37.3 14.667H15.072c-.392 0-.653-.267-.653-.667V7.333c0-.4.261-.666.653-.666h18.96c.261 0 .457.133.588.4l3.269 6.666c.13.2.065.467 0 .667-.131.133-.393.267-.589.267z"/>
        </g>
        <path fill="#2C3C42" d="M3.305 15.333h3.268V6H3.305z"/>
        <g fill="#F4BA48">
            <path d="M31.416 14.667a.59.59 0 0 1-.523-.267l-4.707-6-4.707 6a.672.672 0 0 1-1.046 0l-5.23-6.667c-.196-.266-.196-.733.13-.933.262-.2.72-.2.916.133l4.707 6 4.707-6a.672.672 0 0 1 1.046 0l5.23 6.667c.197.267.197.733-.13.933-.066.067-.262.134-.393.134"/>
            <path d="M15.726 14.667c-.13 0-.261-.067-.392-.134-.262-.2-.327-.666-.13-.933l5.23-6.667a.672.672 0 0 1 1.045 0l4.707 6 4.707-6c.197-.266.654-.333.916-.133.261.2.327.667.13.933L26.71 14.4a.672.672 0 0 1-1.046 0l-4.707-6-4.707 6a.59.59 0 0 1-.523.267M31.416 14.667c-.13 0-.326-.067-.392-.134-.261-.266-.327-.666-.065-.933l3.66-4.467c.262-.266.655-.333.916-.066.262.266.327.666.066.933l-3.662 4.467a.734.734 0 0 1-.523.2"/>
        </g>
        <path fill="#2C3C42" d="M22.918 40H3.958c-.392 0-.653-.267-.653-.667s.261-.666.653-.666h18.96c.392 0 .653.266.653.666s-.261.667-.653.667"/>
    </g>
</svg>
