<svg xmlns="http://www.w3.org/2000/svg" width="43" height="34" viewBox="0 0 43 34">
    <g fill="none" fill-rule="evenodd">
        <path fill="#F4EFD9" d="M43 12.952a2.684 2.684 0 0 1-2.679 2.692H2.68A2.684 2.684 0 0 1 0 12.952v-10.2A2.684 2.684 0 0 1 2.679.061H40.32A2.684 2.684 0 0 1 43 2.752v10.2z"/>
        <path fill="#EFE8CE" d="M2.82.06h37.854C42.154.06 43 1.407 43 2.895v10.2c0 1.487-1.128 2.62-2.608 2.62"/>
        <path fill="#DDD1AF" d="M43 12.952a2.684 2.684 0 0 1-2.679 2.692H2.68A2.684 2.684 0 0 1 0 12.952"/>
        <g fill="#C4B78C">
            <path d="M37.572 8.919c0 .215-.211.358-.493.358H6.626c-.282 0-.493-.143-.493-.358s.211-.358.493-.358h30.382c.353 0 .564.143.564.358zM37.572 11.044c0 .215-.211.358-.493.358H6.626c-.282 0-.493-.143-.493-.358s.211-.358.493-.358h30.382c.353 0 .564.143.564.358zM37.572 13.169c0 .215-.211.358-.493.358H6.626c-.282 0-.493-.143-.493-.358s.211-.358.493-.358h30.382c.353 0 .564.143.564.358z"/>
        </g>
        <path fill="#E5D9AA" d="M43 5.656L40.04 2.47l-1.904 2.267L43 9.977z"/>
        <ellipse cx="39.193" cy="3.602" fill="#37CC85" rx="1.551" ry="1.558"/>
        <path fill="#0AA06E" d="M40.25 2.54c.565.566.565 1.558 0 2.196-.563.566-1.55.566-2.184 0"/>
        <path fill="#3AC2F2" d="M14.193 16.582L11.8 18.974 9.396 16.57l2.393-2.393z"/>
        <path fill="#009CC6" d="M11.772 14.156l2.397 2.409-2.397 2.408"/>
        <path fill="#3AC2F2" d="M24.266 16.565l-2.393 2.392-2.404-2.404 2.393-2.393z"/>
        <path fill="#009CC6" d="M21.852 14.156l2.397 2.409-2.397 2.408"/>
        <path fill="#3AC2F2" d="M34.339 16.547l-2.393 2.392-2.404-2.404 2.393-2.393z"/>
        <path fill="#009CC6" d="M31.933 14.156l2.397 2.409-2.397 2.408"/>
        <path fill="#3AC2F2" d="M14.154 24.036l-2.393 2.393-2.404-2.405 2.393-2.392z"/>
        <path fill="#009CC6" d="M11.772 21.665l2.397 2.337-2.397 2.409"/>
        <path fill="#3AC2F2" d="M24.226 24.018l-2.393 2.393-2.404-2.404 2.393-2.393z"/>
        <path fill="#009CC6" d="M21.852 21.665l2.397 2.337-2.397 2.409"/>
        <path fill="#3AC2F2" d="M34.3 24l-2.393 2.393-2.403-2.404 2.393-2.393z"/>
        <path fill="#009CC6" d="M31.933 21.665l2.397 2.337-2.397 2.409"/>
        <path fill="#3AC2F2" d="M14.164 31.54l-2.393 2.392-2.404-2.404 2.393-2.393z"/>
        <path fill="#009CC6" d="M11.772 29.102l2.397 2.409-2.397 2.408"/>
        <path fill="#3AC2F2" d="M24.238 31.522l-2.393 2.393-2.404-2.404 2.393-2.393z"/>
        <path fill="#009CC6" d="M21.852 29.102l2.397 2.409-2.397 2.408"/>
        <path fill="#3AC2F2" d="M34.31 31.501l-2.393 2.393-2.404-2.404 2.393-2.393z"/>
        <path fill="#009CC6" d="M31.933 29.102l2.397 2.409-2.397 2.408"/>
    </g>
</svg>
