<svg xmlns="http://www.w3.org/2000/svg" width="40" height="40" viewBox="0 0 40 40">
    <g fill="none" fill-rule="evenodd" transform="translate(.103 .103)">
        <circle cx="19.897" cy="19.897" r="19.897" fill="#026EFF"/>
        <path fill="#E6E9EE" d="M32.43 27.385L15.447 33.81c-.532.188-1.128-.063-1.316-.596L6.768 13.724c-.188-.533.063-1.128.595-1.316l16.983-6.423c.533-.188 1.128.062 1.316.595l7.363 19.49a.996.996 0 0 1-.595 1.315z"/>
        <path fill="#FFF" d="M28.983 31.365H10.81c-.564 0-1.034-.47-1.034-1.034V9.463c0-.564.47-1.034 1.034-1.034h18.173c.564 0 1.034.47 1.034 1.034v20.836c-.031.596-.47 1.066-1.034 1.066z"/>
        <path fill="#84DBFF" d="M27.229 13.317a2.473 2.473 0 0 0-.376-.94l.25-.376-.564-.564-.376.25a2.473 2.473 0 0 0-.94-.376l-.094-.438h-.814l-.094.438a2.473 2.473 0 0 0-.94.376l-.345-.25-.564.564.25.376a2.473 2.473 0 0 0-.375.94l-.47.062v.815l.438.094c.063.345.188.658.376.94l-.25.376.564.564.376-.25c.282.187.595.313.94.375l.094.439h.814l.094-.439c.345-.062.658-.188.94-.376l.376.251.564-.564-.25-.376c.188-.282.313-.595.376-.94l.438-.094v-.815l-.438-.062zm-2.507 1.786a1.29 1.29 0 0 1-1.285-1.285c0-.72.596-1.285 1.285-1.285.72 0 1.285.596 1.285 1.285.031.69-.564 1.285-1.285 1.285z"/>
        <g fill="#CED5E0">
            <path d="M11.374 10.56h8.585v1h-8.585zM11.374 12.69h8.585v1h-8.585zM11.374 14.82h8.585v1h-8.585zM11.374 16.952h8.585v1h-8.585zM11.374 19.082H28.42v1H11.374zM11.374 21.276H28.42v1H11.374zM11.374 23.5H28.42v1H11.374zM11.374 25.694H28.42v1H11.374zM11.374 27.918H28.42v1H11.374z"/>
        </g>
    </g>
</svg>
