<svg xmlns="http://www.w3.org/2000/svg" width="40" height="40" viewBox="0 0 40 40">
    <g fill="none" fill-rule="evenodd">
        <circle cx="19.897" cy="19.897" r="19.897" fill="#026EFF" transform="translate(.103 .103)"/>
        <path fill="#FFF" d="M30.09 34.852H9.941c-.783 0-1.41-.627-1.41-1.41V7.059c0-.783.627-1.41 1.41-1.41h20.147c.784 0 1.41.627 1.41 1.41v26.383c.032.783-.626 1.41-1.41 1.41z"/>
        <g fill="#E6E9EE">
            <path d="M10.161 17.556h19.74v1h-19.74zM10.161 19.937h19.74v1h-19.74zM10.161 22.287h19.74v1h-19.74zM10.161 24.637h19.74v1h-19.74zM10.161 27.018h19.74v1h-19.74zM20.94 30.152h8.961v-.783h-19.74v.814H20.94zM10.161 31.718h10.81v1h-10.81z"/>
        </g>
        <path fill="#2B3B4E" d="M24.669 15.331l-1.034 1.034-1.285-1.284c.188-.157.376-.314.533-.47.156-.157.344-.345.47-.533l1.316 1.253z"/>
        <circle cx="18.339" cy="10.005" r="6.486" fill="#324A5E"/>
        <circle cx="18.339" cy="10.005" r="5.295" fill="#FFF"/>
        <path fill="#84DBFF" d="M22.507 13.263a5.241 5.241 0 0 1-4.168 2.037 5.397 5.397 0 0 1-4.198-2.037c.752-.689 1.692-1.096 2.506-1.284-.062.626.251 1.441.251 1.441.313-.752 1.441-.815 1.441-.815s1.097.063 1.442.815c0 .031.344-.815.25-1.441.784.188 1.755.564 2.476 1.284z"/>
        <path fill="#FFD05B" d="M19.687 11.383c0 .126-.094.69-1.316 1.16h-.063c-1.222-.47-1.316-1.034-1.316-1.16 0-.219.063-.438.157-.658.344.376.752.627 1.19.627.439 0 .846-.25 1.191-.627.094.22.157.439.157.658z"/>
        <path fill="#F1543F" d="M19.06 12.762l-.282.564h-.94l-.282-.564a2.81 2.81 0 0 1 .752-.188s.407.031.752.188z"/>
        <path fill="#FF7058" d="M17.619 15.237c.25.032.47.063.72.063.251 0 .47-.031.721-.063l-.25-1.942h-.94l-.251 1.942z"/>
        <g fill="#54C0EB">
            <path d="M19.687 11.383s.062.69-1.348 1.191c0 0 1.097.063 1.442.815 0 .031.626-1.63-.094-2.006zM16.992 11.383c-.72.408-.094 2.037-.094 2.037.313-.752 1.441-.815 1.441-.815-1.41-.564-1.347-1.222-1.347-1.222z"/>
        </g>
        <path fill="#F9B54C" d="M19.593 10.913c-.376.376-.784.627-1.254.627s-.908-.25-1.253-.627c.031-.062.031-.125.063-.188.344.376.752.627 1.19.627.439 0 .846-.25 1.191-.627.031.063.063.126.063.188z"/>
        <path fill="#FFD05B" d="M20.658 9.597c-.188.314-.439.47-.658.439-.407.752-1.003 1.316-1.66 1.316-.659 0-1.254-.564-1.661-1.316-.22.031-.47-.157-.658-.439-.22-.344-.22-.752 0-.877.031-.031.094-.031.156-.031.126.344.314.564.314.564-.188-1.097.595-1.191.47-2.256 0 0 .501 1.128 1.942.344l-.125.22c1.974-.439 1.347 1.848 1.316 1.974.22-.282.376-.564.47-.846.031 0 .063 0 .094.031.22.157.22.533 0 .877z"/>
        <g fill="#324A5E">
            <path d="M16.177 6.182s.408-.063.533.25c0 0-.125-.438 0-.626s0-.063 0-.063-.063.282.063.439c0 0 .282-1.034 2.005-.752 0 0-.345-.031-.752.313 0 0 1.19-.532 1.911.282 0 0-.282-.125-.438-.125 0 0 1.535.595 1.316 2.13l-.094-.344s.125.94-.627 1.88c0 0 .72-2.444-1.316-1.974l.125-.22c-1.441.784-1.942-.344-1.942-.344.125 1.034-.658 1.16-.47 2.256 0 0-.69-.783-.408-1.817l-.219.25s-.157-.94.752-1.253c-.031 0-.094-.22-.439-.282zM32.565 23.102l-1.128 1.128c-.251.25-.658.25-.878 0l-6.956-6.956c-.25-.25-.25-.658 0-.877l1.128-1.128c.251-.251.658-.251.878 0l6.924 6.924c.251.282.251.658.032.909z"/>
        </g>
        <path fill="#4CDBC4" d="M30.123 23.782l-6.092-6.092 1.994-1.994 6.092 6.092z"/>
    </g>
</svg>
