<svg xmlns="http://www.w3.org/2000/svg" width="34" height="36" viewBox="0 0 34 36">
    <g fill="none" fill-rule="evenodd">
        <path fill="#ED9893" d="M28.806 23.49c-2.477.781-5.959-.019-8.543 0-3.046.023-6.092 2.18-9.133 2-1.956-.115-4.275-1.827-5.612-3.515-1.141-1.44-1.809-3.279-2.359-5.01-.245-.771-.476-1.6-.684-2.464H1.287c-.258 1.774-1.573 1.405-1.064 5.088C1.433 28.343 3.159 35.5 9.061 35.5h15.878A9.061 9.061 0 0 0 34 26.439v-9.745c0-.661-.298-1.246-.76-1.648-.59 2.737-1.791 7.611-4.434 8.444z"/>
        <path fill="#E7ECED" d="M32.012 4.422C29.57.799 24.131-.615 20.097.782c-.925.32-1.384.83-2.408.708-.917-.11-2.165-.55-3.083-.682A16.42 16.42 0 0 0 9.211.91C-.278 2.601.964 14.055 3.158 20.965c.55 1.732 1.218 3.571 2.359 5.01 1.337 1.688 3.656 3.399 5.612 3.515 3.04.18 6.087-1.977 9.133-2 2.583-.02 6.066.78 8.543 0 2.88-.907 4.049-6.616 4.58-9.127.88-4.155 1.118-10.246-1.373-13.941z"/>
        <path fill="#FFF" d="M15.127 2.226c-.556-.653-1.339-.796-2.165-.677-1.72.247-3.429.627-5.137.947-2.084.39-3.621 1.806-2.357 3.986 1.128 1.945 4.197 1.817 6.158 1.238.237.014.484-.047.711-.224 1.176-.916 4.283-3.518 2.79-5.27zM22.158 3.5h.875c1.29 0 1.29-2 0-2h-.875c-1.29 0-1.29 2 0 2zM22.211 17.55c.565-4.832-.27-9.475-2.378-13.85-.559-1.161-2.28-.139-1.723 1.016 1.954 4.056 2.622 8.361 2.101 12.823-.151 1.283 1.852 1.276 2 .011z"/>
    </g>
</svg>
